<?xml version="1.0" encoding="UTF-8" standalone="no"?>
<!DOCTYPE svg PUBLIC "-//W3C//DTD SVG 1.1//EN" "http://www.w3.org/Graphics/SVG/1.1/DTD/svg11.dtd">
<svg width="100%" height="100%" viewBox="0 0 2372 5100" version="1.1" xmlns="http://www.w3.org/2000/svg" xmlns:xlink="http://www.w3.org/1999/xlink" xml:space="preserve" xmlns:serif="http://www.serif.com/" style="fill-rule:evenodd;clip-rule:evenodd;stroke-linejoin:round;stroke-miterlimit:2;">
    <g transform="matrix(1,0,0,1,-18227.6,-3908.31)">
        <g id="sideimg" transform="matrix(0.148235,0,0,0.152997,18227.6,3908.31)">
            <rect x="0" y="0" width="16000" height="33333.3" style="fill:none;"/>
            <g id="Слой-8" serif:id="Слой 8" transform="matrix(56.217,0,0,54.4672,-91936.7,-30490.6)">
                <g transform="matrix(1,0,0,1,1738.3,678.041)">
                    <path d="M0,267.841L181.696,359.638L181.696,-91.797L0,267.841Z" style="fill:rgb(214,186,209);fill-rule:nonzero;"/>
                </g>
                <g transform="matrix(-0.756446,0.654056,0.654056,0.756446,1802.05,1085.86)">
                    <path d="M3.747,-10.061C0.583,-10.061 -1.981,-7.497 -1.981,-4.333C-1.981,-1.17 0.583,1.395 3.747,1.395C6.91,1.395 9.475,-1.169 9.475,-4.333C9.475,-7.496 6.911,-10.061 3.747,-10.061" style="fill-rule:nonzero;"/>
                </g>
                <g transform="matrix(-0.756446,0.654056,0.654056,0.756446,1790.53,1072.55)">
                    <path d="M3.746,-10.061C0.582,-10.06 -1.982,-7.496 -1.982,-4.333C-1.981,-1.17 0.582,1.396 3.746,1.395C6.909,1.396 9.475,-1.17 9.475,-4.332C9.474,-7.496 6.91,-10.061 3.746,-10.061" style="fill-rule:nonzero;"/>
                </g>
                <g transform="matrix(-0.756446,0.654056,0.654056,0.756446,1777.46,1060.18)">
                    <path d="M3.746,-10.061C0.582,-10.061 -1.983,-7.496 -1.982,-4.333C-1.982,-1.17 0.582,1.395 3.746,1.395C6.909,1.395 9.474,-1.169 9.474,-4.333C9.474,-7.496 6.91,-10.061 3.746,-10.061" style="fill-rule:nonzero;"/>
                </g>
                <g transform="matrix(-0.648466,-0.761243,-0.761243,0.648466,1860.18,752.375)">
                    <path d="M-4.36,-9.441C-7.524,-9.442 -10.088,-6.878 -10.088,-3.713C-10.088,-0.55 -7.523,2.015 -4.36,2.015C-1.197,2.015 1.368,-0.55 1.367,-3.714C1.368,-6.878 -1.197,-9.442 -4.36,-9.441" style="fill-rule:nonzero;"/>
                </g>
                <g transform="matrix(-0.648466,-0.761243,-0.761243,0.648466,1873.58,740.958)">
                    <path d="M-4.36,-9.441C-7.524,-9.442 -10.088,-6.878 -10.088,-3.713C-10.088,-0.55 -7.523,2.015 -4.36,2.015C-1.197,2.015 1.368,-0.55 1.367,-3.714C1.368,-6.878 -1.197,-9.442 -4.36,-9.441" style="fill-rule:nonzero;"/>
                </g>
                <g transform="matrix(-0.648423,-0.76128,-0.76128,0.648423,1886.54,729.922)">
                    <path d="M-4.359,-9.442C-7.524,-9.442 -10.088,-6.878 -10.088,-3.714C-10.087,-0.551 -7.523,2.014 -4.359,2.015C-1.197,2.014 1.368,-0.551 1.368,-3.714C1.368,-6.877 -1.196,-9.442 -4.359,-9.442" style="fill-rule:nonzero;"/>
                </g>
                <g transform="matrix(0.12,0,0,0.12,0,0)">
                    <path d="M16000,6118.64L16000,6151.69L13854.6,8006.68L15143.4,9497.22L16000,8756.53L16000,8789.58L15140.8,9532.48L13819.3,8004.12L16000,6118.64Z"/>
                </g>
            </g>
        </g>
    </g>
</svg>
